<svg xmlns="http://www.w3.org/2000/svg" width="12.542" height="12.542" viewBox="0 0 12.542 12.542">
    <g transform="translate(-0.729 -0.729)">
        <path d="M7,13.271A6.271,6.271,0,1,1,13.271,7,6.278,6.278,0,0,1,7,13.271ZM7,1.6A5.4,5.4,0,1,0,12.4,7,5.4,5.4,0,0,0,7,1.6Z"
              fill="#8a8a8a"/>
        <path d="M7,9.771a.437.437,0,0,1-.437-.437V4.667a.438.438,0,0,1,.875,0V9.333A.437.437,0,0,1,7,9.771Z"
              fill="#8a8a8a"/>
        <path d="M9.333,7.438H4.667a.438.438,0,0,1,0-.875H9.333a.438.438,0,0,1,0,.875Z" fill="#8a8a8a"/>
    </g>
</svg>
