<svg xmlns="http://www.w3.org/2000/svg" width="12.542" height="12.542" viewBox="0 0 12.542 12.542">
    <g transform="translate(-0.729 -0.729)">
        <path class="a"
              d="M7,13.271a6.271,6.271,0,0,1-4.434-10.7,6.271,6.271,0,1,1,8.868,8.868A6.23,6.23,0,0,1,7,13.271ZM7,1.6a5.4,5.4,0,0,0-3.815,9.211,5.4,5.4,0,1,0,7.631-7.631A5.36,5.36,0,0,0,7,1.6Z"/>
        <path class="b" d="M7,10.792a.729.729,0,1,0-.729-.729A.729.729,0,0,0,7,10.792Z"/>
        <path class="a" d="M7,8.6a.437.437,0,0,1-.437-.437V3.5a.438.438,0,0,1,.875,0V8.167A.437.437,0,0,1,7,8.6Z"/>
    </g>
</svg>
