<svg xmlns="http://www.w3.org/2000/svg" width="12.542" height="12.639" viewBox="0 0 12.542 12.639">
    <g transform="translate(-0.729 -0.729)">
        <path d="M7,13.368a5.785,5.785,0,1,1,5.785-5.785A5.791,5.791,0,0,1,7,13.368ZM7,2.674a4.91,4.91,0,1,0,4.91,4.91A4.915,4.915,0,0,0,7,2.674Z"
              fill="#5473e8"/>
        <path d="M9.2,10.393a.436.436,0,0,1-.309-.128L6.62,8a.438.438,0,0,1-.128-.309V4.478a.438.438,0,1,1,.875,0v3.03L9.506,9.647a.437.437,0,0,1-.309.747Z"
              fill="#5473e8"/>
        <path d="M1.167,3.063a.438.438,0,0,1-.255-.794L2.954.811a.438.438,0,0,1,.509.712L1.421,2.981A.436.436,0,0,1,1.167,3.063Z"
              fill="#5473e8"/>
        <path d="M12.833,3.063a.435.435,0,0,1-.254-.082L10.537,1.523a.438.438,0,0,1,.509-.712l2.042,1.458a.438.438,0,0,1-.255.794Z"
              fill="#5473e8"/>
    </g>
</svg>
