<?xml version="1.0" standalone="no"?><!DOCTYPE svg PUBLIC "-//W3C//DTD SVG 1.1//EN"
        "http://www.w3.org/Graphics/SVG/1.1/DTD/svg11.dtd">
<svg t="1627613865025" class="icon" viewBox="0 0 1024 1024" version="1.1" xmlns="http://www.w3.org/2000/svg" p-id="3261"
     xmlns:xlink="http://www.w3.org/1999/xlink" width="14" height="14">
    <path d="M736 512 512 512 512 288C512 270.08 497.92 256 480 256 462.08 256 448 270.08 448 288l0 256C448 561.92 462.08 576 480 576l256 0C753.92 576 768 561.92 768 544 768 526.08 753.92 512 736 512zM480 64C215.04 64 0 279.04 0 544 0 808.96 215.04 1024 480 1024c264.96 0 480-215.04 480-480C960 279.04 744.96 64 480 64zM480 960C250.24 960 64 773.76 64 544 64 314.24 250.24 128 480 128 709.76 128 896 314.24 896 544 896 773.76 709.76 960 480 960z"
          p-id="3262" fill="#8A8A8A"></path>
</svg>
