<svg xmlns="http://www.w3.org/2000/svg" width="12.542" height="12.542" viewBox="0 0 12.542 12.542">
    <g transform="translate(-0.729 -0.729)">
        <path d="M7,13.271A6.271,6.271,0,1,1,13.271,7,6.278,6.278,0,0,1,7,13.271ZM7,1.6A5.4,5.4,0,1,0,12.4,7,5.4,5.4,0,0,0,7,1.6Z"
              fill="#5473e8"/>
        <path d="M5.35,9.087a.438.438,0,0,1-.309-.747l3.3-3.3a.437.437,0,0,1,.619.619l-3.3,3.3A.436.436,0,0,1,5.35,9.087Z"
              fill="#5473e8"/>
        <path d="M8.65,9.087a.436.436,0,0,1-.309-.128l-3.3-3.3a.437.437,0,0,1,.619-.619l3.3,3.3a.438.438,0,0,1-.309.747Z"
              fill="#5473e8"/>
    </g>
</svg>
