<svg xmlns="http://www.w3.org/2000/svg" width="15" height="15" viewBox="0 0 15 15">
    <defs>
        <style>.a{fill:#5473e8;}.b{fill:#fff;}</style>
    </defs>
    <g transform="translate(-1.5 -1.5)">
        <path class="a" d="M9,16.5A7.5,7.5,0,1,0,1.5,9,7.5,7.5,0,0,0,9,16.5Z"/>
        <path class="b"
              d="M6.879,11.684a.563.563,0,0,1-.4-.96l4.243-4.243a.563.563,0,0,1,.8.8L7.276,11.519A.561.561,0,0,1,6.879,11.684Z"/>
        <path class="b"
              d="M11.121,11.684a.561.561,0,0,1-.4-.165L6.481,7.276a.563.563,0,1,1,.8-.8l4.243,4.243a.563.563,0,0,1-.4.96Z"/>
    </g>
</svg>
