<svg xmlns="http://www.w3.org/2000/svg" width="12" height="14" viewBox="0 0 14 14">
    <g transform="translate(-1.195 -1.195)">
        <path class="a"
              d="M13.723,12.463h-1.6a.512.512,0,0,1,0-1.024h1.6a.449.449,0,0,0,.448-.448V2.668a.449.449,0,0,0-.448-.448H5.4a.449.449,0,0,0-.448.448V4.245a.512.512,0,0,1-1.024,0V2.668A1.474,1.474,0,0,1,5.4,1.2h8.323A1.474,1.474,0,0,1,15.2,2.668v8.323A1.474,1.474,0,0,1,13.723,12.463Z"/>
        <path class="a"
              d="M2.668,3.927h8.323A1.474,1.474,0,0,1,12.463,5.4v8.323A1.474,1.474,0,0,1,10.991,15.2H2.668A1.474,1.474,0,0,1,1.2,13.723V5.4A1.474,1.474,0,0,1,2.668,3.927Zm8.323,10.244a.449.449,0,0,0,.448-.448V5.4a.449.449,0,0,0-.448-.448H2.668A.449.449,0,0,0,2.22,5.4v8.323a.449.449,0,0,0,.448.448Z"/>
    </g>
</svg>
