<svg xmlns="http://www.w3.org/2000/svg" width="13.933" height="14" viewBox="0 0 13.933 14">
    <path class="a"
          d="M14.5,12.706H4.647a1.832,1.832,0,1,0,0,.917H14.5a.459.459,0,1,0,0-.917ZM2.87,14.083a.917.917,0,1,1,.917-.917A.919.919,0,0,1,2.87,14.083ZM14.506,7.542H13.092a1.837,1.837,0,0,0-3.556,0H1.552a.459.459,0,0,0,0,.919H9.538a1.837,1.837,0,0,0,3.556,0h1.414a.459.459,0,1,0,0-.919ZM11.314,8.919A.917.917,0,1,1,12.231,8,.919.919,0,0,1,11.314,8.919ZM2.87,4.67A1.837,1.837,0,0,0,4.648,3.294H14.5a.459.459,0,1,0,0-.919H4.647A1.836,1.836,0,1,0,2.87,4.67Zm0-2.753a.917.917,0,1,1-.917.917A.919.919,0,0,1,2.87,1.917Z"
          transform="translate(-1.034 -1)"/>
</svg>
