<svg xmlns="http://www.w3.org/2000/svg" width="13.1" height="13.1" viewBox="0 0 13.1 13.1">
    <g transform="translate(-1.45 -1.45)">
        <path class="a" d="M14,14.55H2A.55.55,0,0,1,1.45,14V2a.55.55,0,0,1,1.1,0V13.45H14a.55.55,0,0,1,0,1.1Z"/>
        <path class="a" d="M4.667,11.883a.55.55,0,0,1-.55-.55V10a.55.55,0,1,1,1.1,0v1.333A.55.55,0,0,1,4.667,11.883Z"/>
        <path class="a" d="M7.333,11.883a.55.55,0,0,1-.55-.55v-4a.55.55,0,0,1,1.1,0v4A.55.55,0,0,1,7.333,11.883Z"/>
        <path class="a" d="M10,11.883a.55.55,0,0,1-.55-.55V2a.55.55,0,0,1,1.1,0v9.333A.55.55,0,0,1,10,11.883Z"/>
        <path class="a"
              d="M12.667,11.883a.55.55,0,0,1-.55-.55V4.667a.55.55,0,0,1,1.1,0v6.667A.55.55,0,0,1,12.667,11.883Z"/>
    </g>
</svg>
