<svg xmlns="http://www.w3.org/2000/svg" width="13.822" height="14" viewBox="0 0 13.822 14">
    <defs></defs>
    <g transform="translate(-0.128 0.05)">
        <path class="a"
              d="M11.842,14H2.208a.552.552,0,0,1-.552-.552V2.529a.552.552,0,0,1,.552-.522h9.634a.552.552,0,0,1,.552.552V13.448a.552.552,0,0,1-.552.552ZM2.76,12.9h8.53V3.081H2.76Z"
              transform="translate(-0.05 -0.05)"/>
        <path class="a"
              d="M5.741,10.467a.552.552,0,0,1-.552-.552V5.741a.552.552,0,1,1,1.1,0V9.915A.552.552,0,0,1,5.741,10.467Z"
              transform="translate(-0.05 -0.05)"/>
        <path class="a"
              d="M8.31,10.467a.552.552,0,0,1-.552-.552V5.741a.552.552,0,1,1,1.1,0V9.915A.552.552,0,0,1,8.31,10.467Z"
              transform="translate(-0.05 -0.05)"/>
        <path class="a" d="M13.448,3.081H.6a.552.552,0,0,1,0-1.074H13.448a.552.552,0,0,1,0,1.1Z"
              transform="translate(-0.05 -0.05)"/>
        <path class="a"
              d="M9.594,3.081H4.456a.552.552,0,0,1-.442-.813l1-1.937A.552.552,0,0,1,5.51,0H8.52a.552.552,0,0,1,.512.341l1,1.927a.552.552,0,0,1-.482.813ZM5.389,2.007H8.671l-.442-.853H5.841Z"
              transform="translate(-0.05 -0.05)"/>
    </g>
</svg>
