<?xml version="1.0" standalone="no"?><!DOCTYPE svg PUBLIC "-//W3C//DTD SVG 1.1//EN"
        "http://www.w3.org/Graphics/SVG/1.1/DTD/svg11.dtd">
<svg t="1627631213774" class="icon" viewBox="0 0 1024 1024" version="1.1" xmlns="http://www.w3.org/2000/svg"
     p-id="20866" xmlns:xlink="http://www.w3.org/1999/xlink" width="16" height="16">
    <path d="M853.333333 640h-42.666666v-128c0-12.8-8.533333-21.333333-21.333334-21.333333H533.333333v-85.333334h42.666667c23.466667 0 42.666667-19.2 42.666667-42.666666v-128c0-23.466667-19.2-42.666667-42.666667-42.666667h-128c-23.466667 0-42.666667 19.2-42.666667 42.666667v128c0 23.466667 19.2 42.666667 42.666667 42.666666h42.666667v85.333334H234.666667c-12.8 0-21.333333 8.533333-21.333334 21.333333v128H170.666667c-23.466667 0-42.666667 19.2-42.666667 42.666667v128c0 23.466667 19.2 42.666667 42.666667 42.666666h128c23.466667 0 42.666667-19.2 42.666666-42.666666v-128c0-23.466667-19.2-42.666667-42.666666-42.666667h-42.666667v-106.666667h234.666667v106.666667h-42.666667c-23.466667 0-42.666667 19.2-42.666667 42.666667v128c0 23.466667 19.2 42.666667 42.666667 42.666666h128c23.466667 0 42.666667-19.2 42.666667-42.666666v-128c0-23.466667-19.2-42.666667-42.666667-42.666667h-42.666667v-106.666667h234.666667v106.666667h-42.666667c-23.466667 0-42.666667 19.2-42.666666 42.666667v128c0 23.466667 19.2 42.666667 42.666666 42.666666h128c23.466667 0 42.666667-19.2 42.666667-42.666666v-128c0-23.466667-19.2-42.666667-42.666667-42.666667zM448 362.666667v-128h128v128h-128z m-149.333333 448H170.666667v-128h128v128z m277.333333-128v128h-128v-128h128z m149.333333 128v-128h128v128h-128z"
          p-id="20867" fill="#5473E8"></path>
</svg>
