<svg xmlns="http://www.w3.org/2000/svg" width="13.49" height="14" viewBox="0 0 13.49 14">
    <path class="a"
          d="M184.32,430.852a.669.669,0,0,0,.6.676h1.009a.636.636,0,0,0,.6-.676.669.669,0,0,0-.6-.676h-1.009C184.549,430.08,184.32,430.418,184.32,430.852Zm1.56,2.123h-.963a.636.636,0,0,0-.6.676.669.669,0,0,0,.6.676h1.009a.636.636,0,0,0,.6-.676A.709.709,0,0,0,185.879,432.976Zm3.349-2.9h-1.009a.636.636,0,0,0-.6.676.669.669,0,0,0,.6.676h1.009a.636.636,0,0,0,.6-.676A.67.67,0,0,0,189.228,430.08Zm0,2.9h-1.009a.636.636,0,0,0-.6.676.669.669,0,0,0,.6.676h1.009a.636.636,0,0,0,.6-.676A.67.67,0,0,0,189.228,432.976Zm2.34-1.448h1.009a.636.636,0,0,0,.6-.676.669.669,0,0,0-.6-.676h-1.009a.636.636,0,0,0-.6.676A.609.609,0,0,0,191.568,431.528Zm0,2.9h1.009a.636.636,0,0,0,.6-.676.669.669,0,0,0-.6-.676h-1.009a.636.636,0,0,0-.6.676A.609.609,0,0,0,191.568,434.423Zm0,0"
          transform="translate(-181.955 -424.286)"/>
    <path class="a"
          d="M266.867,3.378a.638.638,0,0,0,.627-.627V.627A.674.674,0,0,0,266.867,0a.638.638,0,0,0-.627.627V2.751a.608.608,0,0,0,.627.627Zm6.081,0a.649.649,0,0,0,.627-.676V.627A.639.639,0,0,0,272.948,0a.674.674,0,0,0-.627.627V2.751a.674.674,0,0,0,.627.627Zm-4.874-2.027h3.475V2.413h-3.475Zm0,0"
          transform="translate(-262.962)"/>
    <path class="a"
          d="M29.573,95.573H28.08V96.6h1.4v10.6H18.093V96.6h1.493V95.573H18.093A1.034,1.034,0,0,0,17.067,96.6v10.6a1.066,1.066,0,0,0,1.027,1.023H29.527a1.034,1.034,0,0,0,1.027-1.023V96.6a1,1,0,0,0-.98-1.023Zm0,0"
          transform="translate(-17.067 -94.222)"/>
</svg>
