<svg xmlns="http://www.w3.org/2000/svg" width="9.579" height="14" viewBox="0 0 9.579 14">
    <g transform="translate(0.011 0.011)">
        <path class="a"
              d="M2.7,14.048a.472.472,0,0,1-.5-.5V.552a.472.472,0,0,1,.5-.5.472.472,0,0,1,.5.5V13.506C3.1,13.807,2.9,14.048,2.7,14.048Z"
              transform="translate(-2.208 -0.06)"/>
        <path class="a" d="M11.268,14.048a.472.472,0,0,1-.5-.5V.552a.5.5,0,0,1,1,0V13.506a.472.472,0,0,1-.5.542Z"
              transform="translate(-2.208 -0.06)"/>
    </g>
</svg>
