<svg xmlns="http://www.w3.org/2000/svg" width="11.375" height="11.375" viewBox="0 0 11.375 11.375">
    <g transform="translate(-1.604 -1.313)">
        <path class="a" d="M12.542,12.688H2.042a.438.438,0,0,1,0-.875h10.5a.438.438,0,0,1,0,.875Z"/>
        <path class="a"
              d="M5.343,10.354H3.208a.438.438,0,0,1-.437-.437V7.793A.437.437,0,0,1,2.9,7.484L8.935,1.441a.437.437,0,0,1,.619,0l2.131,2.132a.438.438,0,0,1,0,.619L5.652,10.226A.438.438,0,0,1,5.343,10.354Zm-1.7-.875H5.161l5.6-5.6L9.245,2.369l-5.6,5.605Z"/>
    </g>
</svg>
