<?xml version="1.0" standalone="no"?><!DOCTYPE svg PUBLIC "-//W3C//DTD SVG 1.1//EN"
        "http://www.w3.org/Graphics/SVG/1.1/DTD/svg11.dtd">
<svg t="1627614457189" class="icon" viewBox="0 0 1024 1024" version="1.1" xmlns="http://www.w3.org/2000/svg" p-id="6302"
     xmlns:xlink="http://www.w3.org/1999/xlink" width="14" height="14">
    <path d="M799.1 549.3v336H201.7V138.7H463c20.6 0 37.3-16.7 37.3-37.3 0-20.6-16.7-37.3-37.3-37.3H201.7c-41.2 0-74.7 33.4-74.7 74.7v746.7c0 41.2 33.4 74.7 74.7 74.7H799c41.2 0 74.7-33.4 74.7-74.7v-336c0-20.6-16.7-37.3-37.3-37.3-20.6-0.2-37.3 16.5-37.3 37.1z"
          p-id="6303" fill="#ffffff"></path>
    <path d="M600.1 412.3c-14.6-14.6-14.6-38.2 0-52.8l233.1-233.1c14.6-14.6 38.2-14.6 52.8 0 14.6 14.6 14.6 38.2 0 52.8L652.9 412.3c-14.5 14.5-38.2 14.5-52.8 0z"
          p-id="6304" fill="#ffffff"></path>
</svg>
