<svg xmlns="http://www.w3.org/2000/svg" width="13.317" height="14" viewBox="0 0 13.317 14">
    <g transform="translate(-1.537 -1.195)">
        <path d="M8.2,15.2A6.527,6.527,0,0,1,2.938,13.05a6.1,6.1,0,0,1-1.4-3.831.512.512,0,0,1,1.024,0c0,1.839,1.187,4.951,5.634,4.951s5.634-3.112,5.634-4.951a.512.512,0,0,1,1.024,0,6.1,6.1,0,0,1-1.4,3.831A6.527,6.527,0,0,1,8.2,15.2Z"
              fill="#8a8a8a"/>
        <path d="M8.2,11.78a.512.512,0,0,1-.512-.512V1.742a.512.512,0,0,1,1.024,0v9.527A.512.512,0,0,1,8.2,11.78Z"
              fill="#8a8a8a"/>
        <path d="M12.293,6.317a.511.511,0,0,1-.362-.15L8.2,2.432,4.46,6.167a.512.512,0,0,1-.724-.724l4.1-4.1a.512.512,0,0,1,.724,0l4.1,4.1a.512.512,0,0,1-.362.874Z"
              fill="#8a8a8a"/>
    </g>
</svg>
