<svg xmlns="http://www.w3.org/2000/svg" width="14" height="11.96" viewBox="0 0 14 11.96">
    <path class="a"
          d="M4.009,14.151a.943.943,0,0,1,.943.928V15.1a.943.943,0,0,1-1.887.016v-.026A.943.943,0,0,1,4.009,14.151Zm12.428.314a.629.629,0,0,1,.01,1.258H7.213a.629.629,0,0,1-.01-1.258h9.235ZM4.009,9.119a.943.943,0,0,1,.943.928v.026a.943.943,0,0,1-1.887.016v-.026A.943.943,0,0,1,4.009,9.119Zm12.421.314a.629.629,0,0,1,.01,1.258H7.206A.629.629,0,0,1,7.2,9.434h9.235ZM4.009,4.088a.943.943,0,0,1,.943.928v.026a.943.943,0,0,1-1.887.016V5.031A.943.943,0,0,1,4.009,4.088ZM16.431,4.4a.629.629,0,0,1,.01,1.258H7.206A.629.629,0,0,1,7.2,4.4h9.235Z"
          transform="translate(-3.066 -4.088)"/>
</svg>
