<svg xmlns="http://www.w3.org/2000/svg" width="11.375" height="11.375" viewBox="0 0 11.375 11.375">
    <g transform="translate(-1.313 -1.313)">
        <path class="a"
              d="M7,12.688H1.75a.438.438,0,0,1-.437-.437V1.75a.438.438,0,0,1,.438-.437H7a.438.438,0,0,1,0,.875H2.188v9.625H7a.438.438,0,0,1,0,.875Z"/>
        <path class="a"
              d="M9.625,10.062a.437.437,0,0,1-.309-.747L11.631,7,9.316,4.684a.438.438,0,0,1,.619-.619l2.625,2.625a.438.438,0,0,1,0,.619L9.934,9.934A.436.436,0,0,1,9.625,10.062Z"/>
        <path class="a" d="M12.25,7.435H4.667a.438.438,0,0,1,0-.875H12.25a.437.437,0,0,1,0,.875Z"/>
    </g>
</svg>
