<svg xmlns="http://www.w3.org/2000/svg" width="17.677" height="18" viewBox="0 0 17.677 18">
    <path d="M9.552,1.606A7.863,7.863,0,0,1,15.43,14.69a.692.692,0,0,1,.053.048l3.68,3.681a.7.7,0,0,1,0,.982h0a.7.7,0,0,1-.983,0L14.5,15.72a.7.7,0,0,1-.072-.084A7.863,7.863,0,1,1,9.552,1.606Zm0,1.424A6.439,6.439,0,1,0,15.99,9.469,6.439,6.439,0,0,0,9.552,3.029Zm.235,2.928a.643.643,0,0,1,.643.628V9.233h2.559A.643.643,0,0,1,13,10.519H10.429v2.609a.643.643,0,0,1-1.285.015V10.519H6.461a.643.643,0,0,1-.015-1.286h2.7V6.6a.643.643,0,0,1,.643-.643Z"
          transform="translate(-1.689 -1.606)" fill="#fff"/>
</svg>
