<?xml version="1.0" standalone="no"?><!DOCTYPE svg PUBLIC "-//W3C//DTD SVG 1.1//EN"
        "http://www.w3.org/Graphics/SVG/1.1/DTD/svg11.dtd">
<svg t="1627615989122" class="icon" viewBox="0 0 1024 1024" version="1.1" xmlns="http://www.w3.org/2000/svg"
     p-id="14227" xmlns:xlink="http://www.w3.org/1999/xlink" width="14" height="14">
    <path d="M512.7 268c-19.2 0-34.9-15.6-34.9-34.9v-69.7c0-19.2 15.6-34.9 34.9-34.9 19.2 0 34.9 15.6 34.9 34.9v69.7c0 19.3-15.6 34.9-34.9 34.9zM824.5 817H197.1c-19.2 0-34.9-15.6-34.9-34.9s15.6-34.9 34.9-34.9h627.4c19.2 0 34.9 15.6 34.9 34.9S843.7 817 824.5 817z"
          fill="#8A8A8A" p-id="14228"></path>
    <path d="M756.7 817h-488c-19.2 0-34.9-15.6-34.9-34.9V503.3c0-153.7 125.1-278.8 278.8-278.8s278.8 125.1 278.8 278.8v278.8c0.2 19.3-15.4 34.9-34.7 34.9z m-453.1-69.7h418.2v-244c0-115.3-93.8-209.1-209.1-209.1S303.6 388 303.6 503.3v244z"
          fill="#8A8A8A" p-id="14229"></path>
    <path d="M443 854c0 38.5 31.2 69.7 69.7 69.7s69.7-31.2 69.7-69.7c-58.1 0-92.9-2.2-139.4 0z" p-id="14230"
          fill="#8A8A8A"></path>
</svg>
