<svg xmlns="http://www.w3.org/2000/svg" width="26.875" height="26.875" viewBox="0 0 26.875 26.875">
    <g transform="translate(-1.563 -1.563)">
        <path class="a"
              d="M15,28.438A13.438,13.438,0,0,1,5.5,5.5a13.438,13.438,0,0,1,19,19A13.35,13.35,0,0,1,15,28.438Zm0-25A11.563,11.563,0,1,0,26.563,15,11.576,11.576,0,0,0,15,3.438Z"/>
        <path class="a"
              d="M12.5,9.732a.937.937,0,0,1,.469.126l7.5,4.33a.938.938,0,0,1,0,1.624l-7.5,4.33a.938.938,0,0,1-1.406-.812V10.67a.938.938,0,0,1,.938-.938ZM18.125,15l-4.687-2.706v5.413Z"/>
    </g>
</svg>
