<svg xmlns="http://www.w3.org/2000/svg" width="12.416" height="10.437" viewBox="0 0 12.416 10.437">
  <g id="组_234" data-name="组 234" transform="translate(-324.949 -192.529)">
    <path id="a" class="cls-1" d="M336.134,202.966h-9.872a.5.5,0,0,1-.5-.432l-.812-5.911a.5.5,0,0,1,.5-.568h11.416a.5.5,0,0,1,.5.561l-.731,5.911A.5.5,0,0,1,336.134,202.966Zm-9.436-1h8.994l.608-4.911H326.023Z"/>
    <path id="b" class="cls-1" d="M333.283,199.181h-4.621a.5.5,0,0,1,0-1h4.621a.5.5,0,0,1,0,1Z"/>
    <path id="c" class="cls-1" d="M336.372,195.59a.5.5,0,0,1-.5-.5v-.6h-6.888a.5.5,0,0,1-.354-.146l-.81-.81h-1.59v1.561a.5.5,0,0,1-1,0v-2.061a.5.5,0,0,1,.5-.5h2.3a.5.5,0,0,1,.354.146l.81.81h7.181a.5.5,0,0,1,.5.5v1.1A.5.5,0,0,1,336.372,195.59Z"/>
  </g>
</svg>
