<svg xmlns="http://www.w3.org/2000/svg" width="14" height="14" viewBox="0 0 14 14">
    <g transform="translate(-1.615 -1.615)">
        <path class="a"
              d="M15.077,9.154a.538.538,0,0,1-.538-.538V2.872a.538.538,0,0,1,1.077,0V8.615A.538.538,0,0,1,15.077,9.154Z"/>
        <path class="a"
              d="M2.154,14.9a.538.538,0,0,1-.538-.538V8.615a.538.538,0,0,1,1.077,0v5.743A.538.538,0,0,1,2.154,14.9Z"/>
        <path class="a"
              d="M8.615,15.615a7.008,7.008,0,0,1-7-7,.538.538,0,1,1,1.077,0,5.923,5.923,0,0,0,10.036,4.262.538.538,0,0,1,.748.775A6.965,6.965,0,0,1,8.615,15.615Z"/>
        <path class="a"
              d="M15.077,9.154a.538.538,0,0,1-.538-.538A5.923,5.923,0,0,0,4.354,4.5a.538.538,0,1,1-.775-.748A7,7,0,0,1,15.615,8.615.538.538,0,0,1,15.077,9.154Z"/>
    </g>
</svg>
