<svg xmlns="http://www.w3.org/2000/svg" width="11.485" height="12.568" viewBox="0 0 11.485 12.568">
  <defs>
    <style>
      .cls-1 {
        fill: #fff;
      }

      .cls-2 {
        fill: #5473e8;
      }
    </style>
  </defs>
  <g id="组_235" data-name="组 235" transform="translate(-325.678 -192)">
    <circle id="f" class="cls-1" cx="3.5" cy="3.5" r="3.5" transform="translate(328 192)"/>
    <path id="f_-_轮廓" data-name="f - 轮廓" class="cls-2" d="M3.5,1A2.5,2.5,0,1,0,6,3.5,2.5,2.5,0,0,0,3.5,1m0-1A3.5,3.5,0,1,1,0,3.5,3.5,3.5,0,0,1,3.5,0Z" transform="translate(328 192)"/>
    <path id="e" class="cls-2" d="M-1245.8-7792.643a.5.5,0,0,1-.5-.437,5.749,5.749,0,0,1,1.231-4.174,5.791,5.791,0,0,1,4.563-1.724.5.5,0,0,1,.5.5.5.5,0,0,1-.5.5,4.848,4.848,0,0,0-3.813,1.385,4.764,4.764,0,0,0-.989,3.387.5.5,0,0,1-.433.559A.555.555,0,0,1-1245.8-7792.643Z" transform="translate(1572 7996.976)"/>
    <rect id="d" class="cls-1" width="3" height="4" rx="1.5" transform="translate(333 199)"/>
    <path id="d_-_轮廓" data-name="d - 轮廓" class="cls-2" d="M1.5.5a1,1,0,0,0-1,1v1a1,1,0,0,0,2,0v-1a1,1,0,0,0-1-1m0-.5A1.5,1.5,0,0,1,3,1.5v1a1.5,1.5,0,0,1-3,0v-1A1.5,1.5,0,0,1,1.5,0Z" transform="translate(333 199)"/>
    <path id="c" class="cls-2" d="M-1239.43-7795.626h4.093v2.37h-4.093Z" transform="translate(1572 7997.324)"/>
    <path id="c_-_轮廓" data-name="c - 轮廓" class="cls-2" d="M-1239.43-7796.126h4.093a.5.5,0,0,1,.5.5v2.37a.5.5,0,0,1-.5.5h-4.093a.5.5,0,0,1-.5-.5v-2.37A.5.5,0,0,1-1239.43-7796.126Zm3.593,1h-3.093v1.37h3.093Z" transform="translate(1572 7997.324)"/>
    <circle id="b" class="cls-1" cx="0.5" cy="0.5" r="0.5" transform="translate(334 202)"/>
    <path id="a" class="cls-1" d="M0,1.25A.25.25,0,0,1-.25,1V0A.25.25,0,0,1,0-.25.25.25,0,0,1,.25,0V1A.25.25,0,0,1,0,1.25Z" transform="translate(334.5 202.5)"/>
  </g>
</svg>
