<svg xmlns="http://www.w3.org/2000/svg" width="13.771" height="12.186" viewBox="0 0 13.771 12.186">
    <g transform="translate(0.544 0.544)">
        <path d="M8.426,12.684H1.45a.544.544,0,0,1-.544-.544V3.262a.544.544,0,0,1,.544-.544H14.134a.544.544,0,0,1,.544.544v8.245a.544.544,0,1,1-1.087,0v-7.7H1.993V11.6H8.426a.544.544,0,0,1,0,1.087Z"
              transform="translate(-1.45 -3.262)" fill="#5473e8"/>
        <path d="M2.854-.544a3.4,3.4,0,1,1-3.4,3.4A3.4,3.4,0,0,1,2.854-.544Zm0,5.708a2.31,2.31,0,1,0-2.31-2.31A2.313,2.313,0,0,0,2.854,5.164Z"
              transform="translate(6.976 5.391)" fill="#5473e8"/>
        <path d="M13.59,13.409H12.322a.544.544,0,0,1-.544-.544V11.6a.544.544,0,0,1,1.087,0v.725h.725a.544.544,0,0,1,0,1.087Z"
              transform="translate(-2.809 -4.303)" fill="#5473e8"/>
        <path d="M7.792,7.927a.543.543,0,0,1-.3-.088L1.153,3.717a.544.544,0,0,1,.593-.912l6.046,3.93,6.046-3.93a.544.544,0,0,1,.593.912L8.088,7.84A.543.543,0,0,1,7.792,7.927Z"
              transform="translate(-1.45 -3.262)" fill="#5473e8"/>
    </g>
</svg>
