<svg xmlns="http://www.w3.org/2000/svg" width="12.464" height="10.208" viewBox="0 0 12.464 10.208">
    <g transform="translate(-0.729 -1.896)">
        <path d="M4.083,12.1A3.355,3.355,0,0,1,3.3,5.487a.437.437,0,1,1,.2.851,2.48,2.48,0,1,0,1.254,4.8A.438.438,0,1,1,5,11.977,3.359,3.359,0,0,1,4.083,12.1Z"
              fill="#fff"/>
        <path d="M9.839,12.1a3.359,3.359,0,0,1-.916-.127.438.438,0,1,1,.239-.842,2.48,2.48,0,1,0,1.254-4.8.437.437,0,1,1,.2-.851A3.355,3.355,0,0,1,9.839,12.1Z"
              fill="#fff"/>
        <path d="M10.5,6.271a.438.438,0,0,1-.437-.437,3.063,3.063,0,1,0-6.125,0,.438.438,0,0,1-.875,0,3.937,3.937,0,0,1,7.875,0A.438.438,0,0,1,10.5,6.271Z"
              fill="#fff"/>
        <path d="M9.08,8.6a.436.436,0,0,1-.308-.127L7,6.721,5.287,8.441a.438.438,0,1,1-.62-.618L6.69,5.794a.437.437,0,0,1,.618,0l2.08,2.064A.438.438,0,0,1,9.08,8.6Z"
              fill="#fff"/>
        <path d="M7,11.521a.437.437,0,0,1-.437-.437V7.135a.438.438,0,0,1,.875,0v3.949A.437.437,0,0,1,7,11.521Z"
              fill="#fff"/>
    </g>
</svg>
