<svg id="User" xmlns="http://www.w3.org/2000/svg" width="24" height="24" viewBox="0 0 24 24">
    <path id="path"
          d="M17.653,18.885H16.228a.188.188,0,0,1-.19-.185A7.12,7.12,0,0,0,1.8,18.7a.188.188,0,0,1-.19.185H.19a.188.188,0,0,1-.137-.058A.187.187,0,0,1,0,18.691a8.8,8.8,0,0,1,.7-3.275,8.918,8.918,0,0,1,1.913-2.837,8.807,8.807,0,0,1,2.834-1.912l.02-.008h.009a5.886,5.886,0,1,1,6.891,0h.027a8.924,8.924,0,0,1,5.447,8.027.191.191,0,0,1-.055.138A.188.188,0,0,1,17.653,18.885ZM8.921,1.8A4.083,4.083,0,1,0,11.807,3,4.083,4.083,0,0,0,8.921,1.8Z"
          transform="translate(3.227 2.998)"/>
</svg>
